#tb 0: 1/25
0,          0,          0,        1,   149760, 0x8edb27d7
0,          1,          1,        1,   149760, 0xd62a31bc
0,          2,          2,        1,   149760, 0xec822f84
0,          3,          3,        1,   149760, 0x7a0a0f25
0,          4,          4,        1,   149760, 0x461dd882
0,          5,          5,        1,   149760, 0x62777923
0,          6,          6,        1,   149760, 0x063c2559
0,          7,          7,        1,   149760, 0x03b34c02
0,          8,          8,        1,   149760, 0xe999bdad
0,          9,          9,        1,   149760, 0x3285f731
0,         10,         10,        1,   149760, 0x1f8ffaaa
0,         11,         11,        1,   149760, 0xd7c956f4
0,         12,         12,        1,   149760, 0xb9e3da56
0,         13,         13,        1,   149760, 0x1200953f
0,         14,         14,        1,   149760, 0x06c212cc
0,         15,         15,        1,   149760, 0xaaa84f01
0,         16,         16,        1,   149760, 0x7a606de8
0,         17,         17,        1,   149760, 0x47e49e5a
0,         18,         18,        1,   149760, 0x666a3370
0,         19,         19,        1,   149760, 0x187b6b6c
0,         20,         20,        1,   149760, 0x3c8f0ef4
0,         21,         21,        1,   149760, 0xc3e59d36
0,         22,         22,        1,   149760, 0xecb40b3b
0,         23,         23,        1,   149760, 0x0ae9e31e
0,         24,         24,        1,   149760, 0xd324746b
0,         25,         25,        1,   149760, 0xc337c3d5
0,         26,         26,        1,   149760, 0xd3883c16
0,         27,         27,        1,   149760, 0xa28b836c
0,         28,         28,        1,   149760, 0x1cd61f86
0,         29,         29,        1,   149760, 0x52b51344
0,         30,         30,        1,   149760, 0x3980a396
0,         31,         31,        1,   149760, 0x85d0e262
0,         32,         32,        1,   149760, 0xbd342d08
0,         33,         33,        1,   149760, 0xc6114038
0,         34,         34,        1,   149760, 0xc3ab6ca9
0,         35,         35,        1,   149760, 0x6db56aa7
0,         36,         36,        1,   149760, 0x22df9ab0
0,         37,         37,        1,   149760, 0xfa6d2caf
0,         38,         38,        1,   149760, 0xc1b64e52
0,         39,         39,        1,   149760, 0x4b9c1d64
0,         40,         40,        1,   149760, 0xbab6de8f
0,         41,         41,        1,   149760, 0xfc0e1193
0,         42,         42,        1,   149760, 0x8fa0a268
0,         43,         43,        1,   149760, 0x80cf5e07
0,         44,         44,        1,   149760, 0xe9720cd6
0,         45,         45,        1,   149760, 0xa9bb2593
0,         46,         46,        1,   149760, 0xc2e3e7c6
0,         47,         47,        1,   149760, 0xc9a4ffd6
0,         48,         48,        1,   149760, 0x9acebbe2
0,         49,         49,        1,   149760, 0xb3a6bee1
0,         50,         50,        1,   149760, 0xd1f12057
0,         51,         51,        1,   149760, 0x9a2306c0
0,         52,         52,        1,   149760, 0xd1ee37ff
0,         53,         53,        1,   149760, 0xb0e1dca1
0,         54,         54,        1,   149760, 0x35646e46
0,         55,         55,        1,   149760, 0x803baac5
0,         56,         56,        1,   149760, 0x7ee17b15
0,         57,         57,        1,   149760, 0x03274ce1
0,         58,         58,        1,   149760, 0xf3db2fea
0,         59,         59,        1,   149760, 0xc3c4ff33
0,         60,         60,        1,   149760, 0x0fc4786e
0,         61,         61,        1,   149760, 0x27505756
0,         62,         62,        1,   149760, 0x4c797266
0,         63,         63,        1,   149760, 0xeba43f1b
0,         64,         64,        1,   149760, 0x1ae5f13d
0,         65,         65,        1,   149760, 0x97e186b1
0,         66,         66,        1,   149760, 0xc0556895
0,         67,         67,        1,   149760, 0x4e4d18ed
0,         68,         68,        1,   149760, 0x39811c80
0,         69,         69,        1,   149760, 0x6bca8c2f
0,         70,         70,        1,   149760, 0x27ec4807
0,         71,         71,        1,   149760, 0x50cea38b
0,         72,         72,        1,   149760, 0x7ec4c09d
0,         73,         73,        1,   149760, 0xb2a8afee
0,         74,         74,        1,   149760, 0x0e943cbf
0,         75,         75,        1,   149760, 0x7c119ea8
0,         76,         76,        1,   149760, 0x71e194e5
0,         77,         77,        1,   149760, 0x6a5d792d
0,         78,         78,        1,   149760, 0xb8aeb406
0,         79,         79,        1,   149760, 0x263767f2
0,         80,         80,        1,   149760, 0xcfbef5ae
0,         81,         81,        1,   149760, 0xad7eb01c
0,         82,         82,        1,   149760, 0x612d937d
0,         83,         83,        1,   149760, 0x90a591fd
0,         84,         84,        1,   149760, 0x582a60dd
0,         85,         85,        1,   149760, 0x2640124e
0,         86,         86,        1,   149760, 0x1c12b037
0,         87,         87,        1,   149760, 0xc916c4e7
0,         88,         88,        1,   149760, 0x43d2bfe6
0,         89,         89,        1,   149760, 0xdc7460c4
0,         90,         90,        1,   149760, 0xc46e21a8
0,         91,         91,        1,   149760, 0xe08dbd50
0,         92,         92,        1,   149760, 0xf40bceed
0,         93,         93,        1,   149760, 0x0ab01b81
0,         94,         94,        1,   149760, 0xe6ab1f16
0,         95,         95,        1,   149760, 0x6b4f6a62
0,         96,         96,        1,   149760, 0x8ff7a1a1
0,         97,         97,        1,   149760, 0x079be281
0,         98,         98,        1,   149760, 0xa24bc187
0,         99,         99,        1,   149760, 0xfbed7e79
0,        100,        100,        1,   149760, 0xa27c2048
0,        101,        101,        1,   149760, 0xe6119831
0,        102,        102,        1,   149760, 0xc75684c6
0,        103,        103,        1,   149760, 0x76575ef4
0,        104,        104,        1,   149760, 0xebd32a7e
0,        105,        105,        1,   149760, 0x6e5c703a
0,        106,        106,        1,   149760, 0x3c43d0b3
0,        107,        107,        1,   149760, 0xcc3354af
0,        108,        108,        1,   149760, 0xa7bc26f3
0,        109,        109,        1,   149760, 0xb04b0400
0,        110,        110,        1,   149760, 0x3e5d3995
0,        111,        111,        1,   149760, 0x549331ae
0,        112,        112,        1,   149760, 0xd39031c0
0,        113,        113,        1,   149760, 0xada1a1bd
0,        114,        114,        1,   149760, 0xd08a4bcb
0,        115,        115,        1,   149760, 0xcbefb4fa
0,        116,        116,        1,   149760, 0xb311a7e0
0,        117,        117,        1,   149760, 0xab23a6f2
0,        118,        118,        1,   149760, 0xa90a6dfb
0,        119,        119,        1,   149760, 0xafcc72b7
0,        120,        120,        1,   149760, 0xe7c48044
0,        121,        121,        1,   149760, 0x4449cf72
0,        122,        122,        1,   149760, 0xfe4ba9d7
0,        123,        123,        1,   149760, 0x76623bda
0,        124,        124,        1,   149760, 0x8d071b0b
0,        125,        125,        1,   149760, 0x777aaefa
0,        126,        126,        1,   149760, 0xab995bab
0,        127,        127,        1,   149760, 0xfd0e8e0c
0,        128,        128,        1,   149760, 0xb6d651e5
0,        129,        129,        1,   149760, 0x0646c2d0
0,        130,        130,        1,   149760, 0xefc2561a
0,        131,        131,        1,   149760, 0xaa86dcd1
0,        132,        132,        1,   149760, 0x0caf821e
0,        133,        133,        1,   149760, 0x55a5e7fa
0,        134,        134,        1,   149760, 0x1a011bae
0,        135,        135,        1,   149760, 0xe7a922b2
0,        136,        136,        1,   149760, 0x4b968175
0,        137,        137,        1,   149760, 0xc0bc1018
0,        138,        138,        1,   149760, 0x58775461
0,        139,        139,        1,   149760, 0x77dad082
0,        140,        140,        1,   149760, 0x995e78d7
0,        141,        141,        1,   149760, 0xc6360898
0,        142,        142,        1,   149760, 0xbd0b48ce
0,        143,        143,        1,   149760, 0x6d076602
0,        144,        144,        1,   149760, 0xc3459e98
0,        145,        145,        1,   149760, 0x8e53625e
0,        146,        146,        1,   149760, 0xd1ba7915
0,        147,        147,        1,   149760, 0xf41a48e7
0,        148,        148,        1,   149760, 0xc3fbdcc3
0,        149,        149,        1,   149760, 0x1f726dcf
0,        150,        150,        1,   149760, 0x6f882d61
0,        151,        151,        1,   149760, 0x2e02c8c5
0,        152,        152,        1,   149760, 0x35ed54c6
0,        153,        153,        1,   149760, 0x11dd8c48
0,        154,        154,        1,   149760, 0xc95bf20b
0,        155,        155,        1,   149760, 0x64f96433
0,        156,        156,        1,   149760, 0x1ab5d8d5
0,        157,        157,        1,   149760, 0x3af856f0
0,        158,        158,        1,   149760, 0xdaa3bd1b
0,        159,        159,        1,   149760, 0x25c64816
0,        160,        160,        1,   149760, 0x6a4cc5d7
0,        161,        161,        1,   149760, 0xf8e815f5
0,        162,        162,        1,   149760, 0xa0bf431e
0,        163,        163,        1,   149760, 0x09567fc4
0,        164,        164,        1,   149760, 0x2d9408d7
0,        165,        165,        1,   149760, 0xe09fff24
0,        166,        166,        1,   149760, 0x6d58a81b
0,        167,        167,        1,   149760, 0x0280e181
0,        168,        168,        1,   149760, 0x465e63d1
0,        169,        169,        1,   149760, 0xedb432a0
0,        170,        170,        1,   149760, 0xdff70d73
0,        171,        171,        1,   149760, 0x9386fdb4
0,        172,        172,        1,   149760, 0xdcb03cb9
0,        173,        173,        1,   149760, 0x3538dbd4
0,        174,        174,        1,   149760, 0xc637709d
0,        175,        175,        1,   149760, 0x7a1a6681
0,        176,        176,        1,   149760, 0x403ca1e0
0,        177,        177,        1,   149760, 0xe562d48a
0,        178,        178,        1,   149760, 0x90a2e933
0,        179,        179,        1,   149760, 0x0e9e167a
0,        180,        180,        1,   149760, 0x2da90c4d
0,        181,        181,        1,   149760, 0x2ce92218
0,        182,        182,        1,   149760, 0x164a613d
0,        183,        183,        1,   149760, 0x336d9e2e
0,        184,        184,        1,   149760, 0x598986e6
0,        185,        185,        1,   149760, 0xd0039cfc
0,        186,        186,        1,   149760, 0x8e74c5e6
0,        187,        187,        1,   149760, 0xb95fa63c
0,        188,        188,        1,   149760, 0xc688c596
0,        189,        189,        1,   149760, 0x4757034b
0,        190,        190,        1,   149760, 0xc9ac948a
0,        191,        191,        1,   149760, 0x580b9d60
0,        192,        192,        1,   149760, 0xf39031d6
0,        193,        193,        1,   149760, 0x2d68ad7b
0,        194,        194,        1,   149760, 0xf72815ea
0,        195,        195,        1,   149760, 0xc16323fa
0,        196,        196,        1,   149760, 0x8a65665e
0,        197,        197,        1,   149760, 0xcf1d5a89
0,        198,        198,        1,   149760, 0x03f3011a
0,        199,        199,        1,   149760, 0x24c47cbc
0,        200,        200,        1,   149760, 0xcc89db6d
0,        201,        201,        1,   149760, 0xd8332e3c
0,        202,        202,        1,   149760, 0x8a73af5f
0,        203,        203,        1,   149760, 0x9079e1c5
0,        204,        204,        1,   149760, 0x7b70b098
0,        205,        205,        1,   149760, 0x8a0fc720
0,        206,        206,        1,   149760, 0x92644eef
0,        207,        207,        1,   149760, 0x75cc5f7a
0,        208,        208,        1,   149760, 0xf04b9756
0,        209,        209,        1,   149760, 0x156b33cd
0,        210,        210,        1,   149760, 0x4876d087
0,        211,        211,        1,   149760, 0x393c01c8
0,        212,        212,        1,   149760, 0x29b0a5d9
0,        213,        213,        1,   149760, 0xd76249a1
0,        214,        214,        1,   149760, 0xb946135e
0,        215,        215,        1,   149760, 0x4968f245
0,        216,        216,        1,   149760, 0xb91e27b2
0,        217,        217,        1,   149760, 0x485bfa6c
0,        218,        218,        1,   149760, 0xe7f9fe28
0,        219,        219,        1,   149760, 0x46a6a837
0,        220,        220,        1,   149760, 0xd2cf971c
0,        221,        221,        1,   149760, 0xcb518e01
0,        222,        222,        1,   149760, 0x7870fcd4
0,        223,        223,        1,   149760, 0x8af73981
0,        224,        224,        1,   149760, 0xa90281a7
0,        225,        225,        1,   149760, 0x3fd9c634
0,        226,        226,        1,   149760, 0x5c4e7e8a
0,        227,        227,        1,   149760, 0x520d80e9
0,        228,        228,        1,   149760, 0xd94a7e31
0,        229,        229,        1,   149760, 0x2a846f4e
0,        230,        230,        1,   149760, 0x71f027f1
0,        231,        231,        1,   149760, 0x6edbe368
0,        232,        232,        1,   149760, 0x5c9923eb
0,        233,        233,        1,   149760, 0xff230eab
0,        234,        234,        1,   149760, 0xc7a5ca99
0,        235,        235,        1,   149760, 0x50732f2a
0,        236,        236,        1,   149760, 0xa9f3c8bc
0,        237,        237,        1,   149760, 0x7fa53464
0,        238,        238,        1,   149760, 0xe4c2edcd
0,        239,        239,        1,   149760, 0x43f1e758
0,        240,        240,        1,   149760, 0xdb6b153b
0,        241,        241,        1,   149760, 0x0979d792
0,        242,        242,        1,   149760, 0xaae4a6fd
0,        243,        243,        1,   149760, 0x7ffd1046
0,        244,        244,        1,   149760, 0x083becd8
0,        245,        245,        1,   149760, 0xba86428d
0,        246,        246,        1,   149760, 0xd4cf652a
0,        247,        247,        1,   149760, 0xe518a1e4
0,        248,        248,        1,   149760, 0xfbcf0017
0,        249,        249,        1,   149760, 0xd827b5b1
0,        250,        250,        1,   149760, 0x6b95eb0d
0,        251,        251,        1,   149760, 0x625bf8f9
0,        252,        252,        1,   149760, 0xde17b8b8
0,        253,        253,        1,   149760, 0xfd731e76
0,        254,        254,        1,   149760, 0xae0ce756
0,        255,        255,        1,   149760, 0x15ec506d
0,        256,        256,        1,   149760, 0xfc9dba5c
0,        257,        257,        1,   149760, 0x87e46ba1
0,        258,        258,        1,   149760, 0x31f1d787
0,        259,        259,        1,   149760, 0xfbde528e
0,        260,        260,        1,   149760, 0x152becf8
0,        261,        261,        1,   149760, 0x008386d7
0,        262,        262,        1,   149760, 0x53c00ef9
0,        263,        263,        1,   149760, 0x322d4f0b
0,        264,        264,        1,   149760, 0xd31bf0ec
0,        265,        265,        1,   149760, 0x66b5097e
0,        266,        266,        1,   149760, 0xa9cd719f
0,        267,        267,        1,   149760, 0x427cdc52
0,        268,        268,        1,   149760, 0x6647dabc
0,        269,        269,        1,   149760, 0x651df15f
0,        270,        270,        1,   149760, 0x4ce124c7
0,        271,        271,        1,   149760, 0x8ad42ad7
0,        272,        272,        1,   149760, 0x7303ce98
0,        273,        273,        1,   149760, 0x0c8ad3ab
0,        274,        274,        1,   149760, 0x86859065
0,        275,        275,        1,   149760, 0x97f23fc7
0,        276,        276,        1,   149760, 0x6fde3d1a
0,        277,        277,        1,   149760, 0xca12860e
0,        278,        278,        1,   149760, 0xd0c98709
0,        279,        279,        1,   149760, 0x8f234c79
0,        280,        280,        1,   149760, 0xbc6987fa
0,        281,        281,        1,   149760, 0x40246698
0,        282,        282,        1,   149760, 0x7f83b9ad
0,        283,        283,        1,   149760, 0x87a3596b
0,        284,        284,        1,   149760, 0x0ba5d7f6
0,        285,        285,        1,   149760, 0x2a015c97
0,        286,        286,        1,   149760, 0xa1a73e7b
0,        287,        287,        1,   149760, 0x3c1d8178
0,        288,        288,        1,   149760, 0x2207f0b6
0,        289,        289,        1,   149760, 0x1f56738a
0,        290,        290,        1,   149760, 0x0014e5b6
0,        291,        291,        1,   149760, 0xe0113ffa
0,        292,        292,        1,   149760, 0x7df23683
0,        293,        293,        1,   149760, 0x2a1afb23
0,        294,        294,        1,   149760, 0x072ced03
0,        295,        295,        1,   149760, 0x7afca5d3
0,        296,        296,        1,   149760, 0x6055b3da
0,        297,        297,        1,   149760, 0xa785c79c
0,        298,        298,        1,   149760, 0x3606db52
0,        299,        299,        1,   149760, 0x007fdd05
